HIERARCHY
ROOT hip
{
  OFFSET 0.00112043 5.09927 -9.65472
  CHANNELS 6 Xposition Yposition Zposition Zrotation Xrotation Yrotation
  JOINT abdomen
  {
    OFFSET 0 -1.186 -1.5018
    CHANNELS 3 Zrotation Xrotation Yrotation
    JOINT abdomen2
    {
      OFFSET 0 9.964 0.2134
      CHANNELS 3 Zrotation Xrotation Yrotation
      JOINT chest
      {
        OFFSET 0 13.134 -3.2573
        CHANNELS 3 Zrotation Xrotation Yrotation
        JOINT neck
        {
          OFFSET 0 20.686 -1.6905
          CHANNELS 3 Zrotation Xrotation Yrotation
          JOINT head
          {
            OFFSET 0 7.238 -0.1237
            CHANNELS 3 Zrotation Xrotation Yrotation
            End Site
            {
              OFFSET 0 0 0
            }
          }
        }
        JOINT lCollar
        {
          OFFSET 1.7069 20.075 5.0056
          CHANNELS 3 Zrotation Xrotation Yrotation
          JOINT lShldr
          {
            OFFSET 13.6458 -0.047 -4.849
            CHANNELS 3 Zrotation Xrotation Yrotation
            JOINT lForeArm
            {
              OFFSET 28.3255 -0.9759 2.2888
              CHANNELS 3 Zrotation Xrotation Yrotation
              JOINT lHand
              {
                OFFSET 22.1583 -0.53 10.8316
                CHANNELS 3 Zrotation Xrotation Yrotation
                JOINT lThumb1
                {
                  OFFSET 0.786 0.112 2.5817
                  CHANNELS 3 Zrotation Xrotation Yrotation
                  JOINT lThumb2
                  {
                    OFFSET 0.3601 -0.878 4.2331
                    CHANNELS 3 Zrotation Xrotation Yrotation
                    JOINT lThumb2_End
                    {
                      OFFSET 1.8127 -1.216 2.2227
                      CHANNELS 3 Zrotation Xrotation Yrotation
                      End Site
                      {
                        OFFSET 0.0181 -0.0122 0.0222
                      }
                    }
                  }
                }
                JOINT lCarpal1
                {
                  OFFSET 0.9571 1.114 1.7695
                  CHANNELS 3 Zrotation Xrotation Yrotation
                  JOINT lIndex1
                  {
                    OFFSET 4.1246 0.487 4.1451
                    CHANNELS 3 Zrotation Xrotation Yrotation
                    JOINT lIndex2
                    {
                      OFFSET 3.4052 -1.454 2.7682
                      CHANNELS 3 Zrotation Xrotation Yrotation
                      JOINT lIndex2_End
                      {
                        OFFSET 1.4531 -1.795 1.2713
                        CHANNELS 3 Zrotation Xrotation Yrotation
                        End Site
                        {
                          OFFSET 0.0145 -0.0179 0.0127
                        }
                      }
                    }
                  }
                  JOINT lMid1
                  {
                    OFFSET 5.6954 0.21 2.1184
                    CHANNELS 3 Zrotation Xrotation Yrotation
                    JOINT lMid2
                    {
                      OFFSET 3.9766 -1.54 2.3863
                      CHANNELS 3 Zrotation Xrotation Yrotation
                      JOINT lMid2_End
                      {
                        OFFSET 1.4042 -1.926 1.125
                        CHANNELS 3 Zrotation Xrotation Yrotation
                        End Site
                        {
                          OFFSET 0.014 -0.0193 0.0113
                        }
                      }
                    }
                  }
                }
                JOINT lCarpal2
                {
                  OFFSET 2.0956 0.66 -0.3894
                  CHANNELS 3 Zrotation Xrotation Yrotation
                  JOINT lRing1
                  {
                    OFFSET 5.0395 -0.09 2.4971
                    CHANNELS 3 Zrotation Xrotation Yrotation
                    JOINT lRing2
                    {
                      OFFSET 3.7921 -1.552 1.4806
                      CHANNELS 3 Zrotation Xrotation Yrotation
                      JOINT lRing2_End
                      {
                        OFFSET 1.4655 -1.808 0.9609
                        CHANNELS 3 Zrotation Xrotation Yrotation
                        End Site
                        {
                          OFFSET 0.0147 -0.0181 0.0096
                        }
                      }
                    }
                  }
                  JOINT lPinky1
                  {
                    OFFSET 4.9141 -1.269 0.3591
                    CHANNELS 3 Zrotation Xrotation Yrotation
                    JOINT lPinky2
                    {
                      OFFSET 3.1477 -1.685 0.8462
                      CHANNELS 3 Zrotation Xrotation Yrotation
                      JOINT lPinky2_End
                      {
                        OFFSET 0.8055 -1.585 0.7955
                        CHANNELS 3 Zrotation Xrotation Yrotation
                        End Site
                        {
                          OFFSET 0.0081 -0.0158 0.008
                        }
                      }
                    }
                  }
                }
              }
            }
          }
        }
        JOINT rCollar
        {
          OFFSET -1.7069 20.075 5.0056
          CHANNELS 3 Zrotation Xrotation Yrotation
          JOINT rShldr
          {
            OFFSET -13.6458 -0.047 -4.849
            CHANNELS 3 Zrotation Xrotation Yrotation
            JOINT rForeArm
            {
              OFFSET -28.3255 -0.9759 2.2888
              CHANNELS 3 Zrotation Xrotation Yrotation
              JOINT rHand
              {
                OFFSET -22.1583 -0.53 10.8316
                CHANNELS 3 Zrotation Xrotation Yrotation
                JOINT rThumb1
                {
                  OFFSET -0.786 0.112 2.5817
                  CHANNELS 3 Zrotation Xrotation Yrotation
                  JOINT rThumb2
                  {
                    OFFSET -0.3601 -0.878 4.2331
                    CHANNELS 3 Zrotation Xrotation Yrotation
                    JOINT rThumb2_End
                    {
                      OFFSET -1.8127 -1.216 2.2227
                      CHANNELS 3 Zrotation Xrotation Yrotation
                      End Site
                      {
                        OFFSET -0.0181 -0.0122 0.0222
                      }
                    }
                  }
                }
                JOINT rCarpal1
                {
                  OFFSET -0.9571 1.114 1.7695
                  CHANNELS 3 Zrotation Xrotation Yrotation
                  JOINT rIndex1
                  {
                    OFFSET -4.1246 0.487 4.1451
                    CHANNELS 3 Zrotation Xrotation Yrotation
                    JOINT rIndex2
                    {
                      OFFSET -3.4052 -1.454 2.7682
                      CHANNELS 3 Zrotation Xrotation Yrotation
                      JOINT rIndex2_End
                      {
                        OFFSET -1.4531 -1.795 1.2713
                        CHANNELS 3 Zrotation Xrotation Yrotation
                        End Site
                        {
                          OFFSET -0.0145 -0.018 0.0127
                        }
                      }
                    }
                  }
                  JOINT rMid1
                  {
                    OFFSET -5.6954 0.21 2.1184
                    CHANNELS 3 Zrotation Xrotation Yrotation
                    JOINT rMid2
                    {
                      OFFSET -3.9766 -1.54 2.3863
                      CHANNELS 3 Zrotation Xrotation Yrotation
                      JOINT rMid2_End
                      {
                        OFFSET -1.4042 -1.926 1.125
                        CHANNELS 3 Zrotation Xrotation Yrotation
                        End Site
                        {
                          OFFSET -0.014 -0.0193 0.0113
                        }
                      }
                    }
                  }
                }
                JOINT rCarpal2
                {
                  OFFSET -2.0956 0.66 -0.3894
                  CHANNELS 3 Zrotation Xrotation Yrotation
                  JOINT rRing1
                  {
                    OFFSET -5.0395 -0.09 2.4971
                    CHANNELS 3 Zrotation Xrotation Yrotation
                    JOINT rRing2
                    {
                      OFFSET -3.7921 -1.552 1.4806
                      CHANNELS 3 Zrotation Xrotation Yrotation
                      JOINT rRing2_End
                      {
                        OFFSET -1.4655 -1.808 0.9609
                        CHANNELS 3 Zrotation Xrotation Yrotation
                        End Site
                        {
                          OFFSET -0.0147 -0.0181 0.0096
                        }
                      }
                    }
                  }
                  JOINT rPinky1
                  {
                    OFFSET -4.9141 -1.269 0.3592
                    CHANNELS 3 Zrotation Xrotation Yrotation
                    JOINT rPinky2
                    {
                      OFFSET -3.1477 -1.685 0.8462
                      CHANNELS 3 Zrotation Xrotation Yrotation
                      JOINT rPinky2_End
                      {
                        OFFSET -0.8055 -1.585 0.7955
                        CHANNELS 3 Zrotation Xrotation Yrotation
                        End Site
                        {
                          OFFSET -0.0081 -0.0158 0.008
                        }
                      }
                    }
                  }
                }
              }
            }
          }
        }
      }
    }
  }
  JOINT lThigh
  {
    OFFSET 8.367 -8.2066 0.5982
    CHANNELS 3 Zrotation Xrotation Yrotation
    JOINT lShin
    {
      OFFSET 2.1923 -43.463 -0.4932
      CHANNELS 3 Zrotation Xrotation Yrotation
      JOINT lFoot
      {
        OFFSET 0.7333 -45.8593 -2.6451
        CHANNELS 3 Zrotation Xrotation Yrotation
        End Site
        {
          OFFSET 2.6618 -4.2699 12.3931
        }
      }
    }
  }
  JOINT rThigh
  {
    OFFSET -8.367 -8.2066 0.5982
    CHANNELS 3 Zrotation Xrotation Yrotation
    JOINT rShin
    {
      OFFSET -2.1923 -43.463 -0.4931
      CHANNELS 3 Zrotation Xrotation Yrotation
      JOINT rFoot
      {
        OFFSET -0.7333 -45.8593 -2.6451
        CHANNELS 3 Zrotation Xrotation Yrotation
        End Site
        {
          OFFSET -2.6618 -4.2699 12.3931
        }
      }
    }
  }
}
MOTION
Frames:	4
Frame Time:	0.0333333
1.73651 24.8033 26.4911 0 21.6234 -0 0.0695574 17.4679 -0.539777 0.348122 34.9341 -1.1933 0.348123 34.9341 -1.1933 -5.89784e-006 -48.0029 -2.31865e-006 -10.4988 -33.8717 -5.34115 46.116 12.9183 -17.0044 -51.1278 -30.5665 -83.1283 -43.0049 -21.9065 -61.3521 -38.5056 23.1499 -5.42047 1.76556e-031 -6.36111e-015 1.59028e-015 -7.93914e-007 -2.67543e-006 1.95532e-006 -9.77662e-007 3.41697e-006 -3.96957e-007 1.76556e-031 -6.36111e-015 1.59028e-015 -3.18055e-015 0 3.18055e-015 -7.93914e-007 -2.67543e-006 1.95532e-006 -9.77662e-007 3.41697e-006 -3.96957e-007 -3.18055e-015 0 3.18055e-015 -7.93914e-007 -2.67543e-006 1.95532e-006 -9.77662e-007 3.41697e-006 -3.96957e-007 1.76556e-031 -6.36111e-015 1.59028e-015 -3.18055e-015 0 3.18055e-015 -7.93914e-007 -2.67543e-006 1.95532e-006 -9.77662e-007 3.41697e-006 -3.96957e-007 -3.18055e-015 0 3.18055e-015 -7.93914e-007 -2.67543e-006 1.95532e-006 -9.77662e-007 3.41697e-006 -3.96957e-007 -18.1834 -0.626813 10.4963 -9.33502 -20.0009 69.228 47.5068 -33.4488 42.5499 37.0277 20.6362 48.9137 4.92589e-007 -1.81617e-007 -1.61357e-006 -3.82029e-007 3.22714e-006 -3.63234e-007 6.53221e-007 -3.93131e-006 4.07135e-007 -1.59028e-015 0 -1.59028e-015 4.92589e-007 -1.81617e-007 -1.61357e-006 -3.82029e-007 3.22714e-006 -3.63234e-007 6.53221e-007 -3.93131e-006 4.07135e-007 4.92589e-007 -1.81617e-007 -1.61357e-006 -3.82029e-007 3.22714e-006 -3.63234e-007 6.53221e-007 -3.93131e-006 4.07135e-007 -1.59028e-015 0 -1.59028e-015 4.92589e-007 -1.81617e-007 -1.61357e-006 -3.82029e-007 3.22714e-006 -3.63234e-007 6.53221e-007 -3.93131e-006 4.07135e-007 4.92589e-007 -1.81617e-007 -1.61357e-006 -3.82029e-007 3.22714e-006 -3.63234e-007 6.53221e-007 -3.93131e-006 4.07135e-007 60.4344 -4.02587 26.176 8.29842 80.8581 -5.77827 6.0208 2.63214 1.58951 -60.6417 -3.98868 -26.3602 -8.25869 80.8509 5.73296 -5.9347 2.88083 -1.88579 
1.73646 24.7553 26.3318 0 21.7484 -0 0.0695224 17.4636 -0.539703 0.347946 34.9256 -1.19307 0.347945 34.9256 -1.19307 3.74743e-008 -48.0029 4.47765e-007 -10.7801 -33.7897 -5.49822 45.6666 12.0096 -16.967 -51.1877 -30.1776 -82.784 -43.003 -21.921 -61.3512 -39.0991 22.8746 -4.73119 6.36111e-015 0 -9.54166e-015 -2.12607e-006 1.46946e-006 1.87542e-006 -8.03854e-007 -4.15759e-006 -3.01345e-006 1.59028e-015 0 -4.77083e-015 -3.18055e-015 3.18055e-015 -1.59028e-015 -2.12607e-006 1.46946e-006 1.87542e-006 -8.03854e-007 -4.15759e-006 -3.01345e-006 -3.18055e-015 3.18055e-015 -1.59028e-015 -2.12607e-006 1.46946e-006 1.87542e-006 -8.03854e-007 -4.15759e-006 -3.01345e-006 1.59028e-015 0 -4.77083e-015 -3.18055e-015 3.18055e-015 -1.59028e-015 -2.12607e-006 1.46946e-006 1.87542e-006 -8.03854e-007 -4.15759e-006 -3.01345e-006 -3.18055e-015 3.18055e-015 -1.59028e-015 -2.12607e-006 1.46946e-006 1.87542e-006 -8.03854e-007 -4.15759e-006 -3.01345e-006 -18.1917 -0.715902 10.3761 -9.33501 -20.0009 69.228 47.5069 -33.4488 42.5499 37.0277 20.6362 48.9137 -6.36111e-015 -3.18055e-015 4.77083e-015 -1.61356e-006 -1.91949e-007 -4.92609e-007 2.46305e-007 -9.03078e-008 -8.06782e-007 -3.18055e-015 0 -0 -4.77083e-015 -3.18055e-015 7.95139e-015 -1.61356e-006 -1.91949e-007 -4.92609e-007 2.46305e-007 -9.03078e-008 -8.06782e-007 -4.77083e-015 -3.18055e-015 7.95139e-015 -1.61356e-006 -1.91949e-007 -4.92609e-007 2.46305e-007 -9.03078e-008 -8.06782e-007 -3.18055e-015 0 -0 -4.77083e-015 -3.18055e-015 7.95139e-015 -1.61356e-006 -1.91949e-007 -4.92609e-007 2.46305e-007 -9.03078e-008 -8.06782e-007 -4.77083e-015 -3.18055e-015 7.95139e-015 -1.61356e-006 -1.91949e-007 -4.92609e-007 2.46305e-007 -9.03078e-008 -8.06782e-007 60.6035 -4.28055 26.3611 8.71936 81.1325 -6.18146 6.02408 2.64258 1.59921 -60.8012 -4.24448 -26.5361 -8.68058 81.1258 6.13722 -5.94246 2.87812 -1.87988 
1.73641 24.7073 26.1723 0 21.8735 -0 0.0694793 17.4594 -0.53962 0.347748 34.9171 -1.19282 0.347748 34.9171 -1.19282 -5.74379e-005 -48.0029 -4.39717e-005 -11.0606 -33.707 -5.65461 45.2195 11.101 -16.9369 -51.25 -29.7891 -82.4405 -43.0011 -21.9355 -61.3503 -39.6876 22.5927 -4.04658 9.79482e-007 -3.42138e-006 3.83892e-007 6.08337e-007 1.12222e-007 -1.56445e-006 -1.97553e-006 -3.09488e-006 1.03584e-006 -1.59028e-015 6.36111e-015 1.59028e-015 9.79482e-007 -3.42138e-006 3.83892e-007 6.08337e-007 1.12222e-007 -1.56445e-006 -1.97553e-006 -3.09488e-006 1.03584e-006 9.79482e-007 -3.42138e-006 3.83892e-007 6.08337e-007 1.12222e-007 -1.56445e-006 -1.97553e-006 -3.09488e-006 1.03584e-006 -1.59028e-015 6.36111e-015 1.59028e-015 9.79482e-007 -3.42138e-006 3.83892e-007 6.08337e-007 1.12222e-007 -1.56445e-006 -1.97553e-006 -3.09488e-006 1.03584e-006 9.79482e-007 -3.42138e-006 3.83892e-007 6.08337e-007 1.12222e-007 -1.56445e-006 -1.97553e-006 -3.09488e-006 1.03584e-006 -18.2001 -0.804952 10.2559 -9.33502 -20.0009 69.228 47.5069 -33.4488 42.5499 37.0277 20.6362 48.9137 -3.18055e-015 3.18055e-015 3.18055e-015 -1.59028e-015 3.18055e-015 -0 -2.46315e-007 8.98079e-008 8.06779e-007 -3.18055e-015 3.18055e-015 3.18055e-015 -8.82781e-032 3.18055e-015 1.59028e-015 -6.36111e-015 -1.27222e-014 3.18055e-015 -2.46315e-007 8.98079e-008 8.06779e-007 -8.82781e-032 3.18055e-015 1.59028e-015 -6.36111e-015 -1.27222e-014 3.18055e-015 -2.46315e-007 8.98079e-008 8.06779e-007 -3.18055e-015 3.18055e-015 3.18055e-015 -8.82781e-032 3.18055e-015 1.59028e-015 -6.36111e-015 -1.27222e-014 3.18055e-015 -2.46315e-007 8.98079e-008 8.06779e-007 -8.82781e-032 3.18055e-015 1.59028e-015 -6.36111e-015 -1.27222e-014 3.18055e-015 -2.46315e-007 8.98079e-008 8.06779e-007 60.7734 -4.5348 26.5471 9.16794 81.4066 -6.61212 6.02735 2.65285 1.60899 -60.9614 -4.49988 -26.713 -9.12934 81.4 6.56821 -5.95029 2.87551 -1.87404 
1.73637 24.6593 26.0129 0 21.9986 -0 0.0694296 17.4551 -0.53953 0.347534 34.9086 -1.19254 0.347535 34.9086 -1.19255 -6.72161e-005 -48.0031 -4.94857e-005 -11.3405 -33.6238 -5.8103 44.7743 10.1927 -16.9141 -51.3147 -29.4009 -82.0979 -42.9992 -21.9501 -61.3493 -40.2711 22.3045 -3.36671 -1.36778e-006 -2.98478e-006 -5.30788e-007 9.80492e-007 -3.42355e-006 3.77048e-007 -7.82758e-007 1.46256e-007 -3.02612e-007 -3.53113e-031 6.36111e-015 3.18055e-015 -1.36778e-006 -2.98478e-006 -5.30788e-007 9.80492e-007 -3.42355e-006 3.77048e-007 -7.82758e-007 1.46256e-007 -3.02612e-007 -1.36778e-006 -2.98478e-006 -5.30788e-007 9.80492e-007 -3.42355e-006 3.77048e-007 -7.82758e-007 1.46256e-007 -3.02612e-007 -3.53113e-031 6.36111e-015 3.18055e-015 -1.36778e-006 -2.98478e-006 -5.30788e-007 9.80492e-007 -3.42355e-006 3.77048e-007 -7.82758e-007 1.46256e-007 -3.02612e-007 -1.36778e-006 -2.98478e-006 -5.30788e-007 9.80492e-007 -3.42355e-006 3.77048e-007 -7.82758e-007 1.46256e-007 -3.02612e-007 -18.2088 -0.894 10.1356 -9.33505 -20.0009 69.228 47.5069 -33.4488 42.5499 37.0277 20.6362 48.9137 -2.46325e-007 8.93092e-008 8.06774e-007 -2.1062e-006 -1.52061e-008 1.1209e-006 -4.77083e-015 -1.27222e-014 -1.59028e-015 -3.18055e-015 0 -1.59028e-015 -2.46325e-007 8.93092e-008 8.06774e-007 -2.1062e-006 -1.52061e-008 1.1209e-006 -3.18055e-015 -1.90833e-014 -0 -2.46325e-007 8.93092e-008 8.06774e-007 -2.1062e-006 -1.52061e-008 1.1209e-006 -3.18055e-015 -1.90833e-014 -0 -3.18055e-015 0 -1.59028e-015 -2.46325e-007 8.93092e-008 8.06774e-007 -2.1062e-006 -1.52061e-008 1.1209e-006 -3.18055e-015 -1.90833e-014 -0 -2.46325e-007 8.93092e-008 8.06774e-007 -2.1062e-006 -1.52061e-008 1.1209e-006 -3.18055e-015 -1.90833e-014 -0 60.9441 -4.78852 26.7341 9.64548 81.6799 -7.07163 6.03067 2.66323 1.61879 -61.1223 -4.75495 -26.8907 -9.60767 81.6737 7.02853 -5.95813 2.8729 -1.86821 
